<?xml version='1.0' encoding='UTF-8'?>
<svg width="49mm" height="49mm" version="1.1" viewBox="0 0 49 49" xmlns="http://www.w3.org/2000/svg"><path d="M2,2H3V3H2zM3,2H4V3H3zM4,2H5V3H4zM5,2H6V3H5zM6,2H7V3H6zM7,2H8V3H7zM8,2H9V3H8zM11,2H12V3H11zM12,2H13V3H12zM22,2H23V3H22zM27,2H28V3H27zM29,2H30V3H29zM30,2H31V3H30zM31,2H32V3H31zM32,2H33V3H32zM35,2H36V3H35zM38,2H39V3H38zM40,2H41V3H40zM41,2H42V3H41zM42,2H43V3H42zM43,2H44V3H43zM44,2H45V3H44zM45,2H46V3H45zM46,2H47V3H46zM2,3H3V4H2zM8,3H9V4H8zM10,3H11V4H10zM11,3H12V4H11zM12,3H13V4H12zM13,3H14V4H13zM16,3H17V4H16zM17,3H18V4H17zM21,3H22V4H21zM22,3H23V4H22zM24,3H25V4H24zM25,3H26V4H25zM29,3H30V4H29zM30,3H31V4H30zM31,3H32V4H31zM33,3H34V4H33zM34,3H35V4H34zM37,3H38V4H37zM40,3H41V4H40zM46,3H47V4H46zM2,4H3V5H2zM4,4H5V5H4zM5,4H6V5H5zM6,4H7V5H6zM8,4H9V5H8zM11,4H12V5H11zM12,4H13V5H12zM15,4H16V5H15zM16,4H17V5H16zM17,4H18V5H17zM21,4H22V5H21zM22,4H23V5H22zM24,4H25V5H24zM27,4H28V5H27zM28,4H29V5H28zM29,4H30V5H29zM30,4H31V5H30zM35,4H36V5H35zM37,4H38V5H37zM40,4H41V5H40zM42,4H43V5H42zM43,4H44V5H43zM44,4H45V5H44zM46,4H47V5H46zM2,5H3V6H2zM4,5H5V6H4zM5,5H6V6H5zM6,5H7V6H6zM8,5H9V6H8zM16,5H17V6H16zM17,5H18V6H17zM20,5H21V6H20zM22,5H23V6H22zM23,5H24V6H23zM25,5H26V6H25zM26,5H27V6H26zM30,5H31V6H30zM32,5H33V6H32zM37,5H38V6H37zM38,5H39V6H38zM40,5H41V6H40zM42,5H43V6H42zM43,5H44V6H43zM44,5H45V6H44zM46,5H47V6H46zM2,6H3V7H2zM4,6H5V7H4zM5,6H6V7H5zM6,6H7V7H6zM8,6H9V7H8zM11,6H12V7H11zM16,6H17V7H16zM18,6H19V7H18zM20,6H21V7H20zM21,6H22V7H21zM22,6H23V7H22zM23,6H24V7H23zM24,6H25V7H24zM25,6H26V7H25zM26,6H27V7H26zM28,6H29V7H28zM31,6H32V7H31zM32,6H33V7H32zM35,6H36V7H35zM36,6H37V7H36zM37,6H38V7H37zM38,6H39V7H38zM40,6H41V7H40zM42,6H43V7H42zM43,6H44V7H43zM44,6H45V7H44zM46,6H47V7H46zM2,7H3V8H2zM8,7H9V8H8zM10,7H11V8H10zM11,7H12V8H11zM12,7H13V8H12zM13,7H14V8H13zM15,7H16V8H15zM16,7H17V8H16zM18,7H19V8H18zM20,7H21V8H20zM21,7H22V8H21zM22,7H23V8H22zM26,7H27V8H26zM40,7H41V8H40zM46,7H47V8H46zM2,8H3V9H2zM3,8H4V9H3zM4,8H5V9H4zM5,8H6V9H5zM6,8H7V9H6zM7,8H8V9H7zM8,8H9V9H8zM10,8H11V9H10zM12,8H13V9H12zM14,8H15V9H14zM16,8H17V9H16zM18,8H19V9H18zM20,8H21V9H20zM22,8H23V9H22zM24,8H25V9H24zM26,8H27V9H26zM28,8H29V9H28zM30,8H31V9H30zM32,8H33V9H32zM34,8H35V9H34zM36,8H37V9H36zM38,8H39V9H38zM40,8H41V9H40zM41,8H42V9H41zM42,8H43V9H42zM43,8H44V9H43zM44,8H45V9H44zM45,8H46V9H45zM46,8H47V9H46zM10,9H11V10H10zM12,9H13V10H12zM14,9H15V10H14zM17,9H18V10H17zM18,9H19V10H18zM19,9H20V10H19zM20,9H21V10H20zM21,9H22V10H21zM22,9H23V10H22zM26,9H27V10H26zM28,9H29V10H28zM30,9H31V10H30zM31,9H32V10H31zM33,9H34V10H33zM34,9H35V10H34zM38,9H39V10H38zM6,10H7V11H6zM7,10H8V11H7zM8,10H9V11H8zM9,10H10V11H9zM13,10H14V11H13zM14,10H15V11H14zM15,10H16V11H15zM16,10H17V11H16zM17,10H18V11H17zM20,10H21V11H20zM22,10H23V11H22zM23,10H24V11H23zM24,10H25V11H24zM25,10H26V11H25zM26,10H27V11H26zM27,10H28V11H27zM28,10H29V11H28zM30,10H31V11H30zM34,10H35V11H34zM35,10H36V11H35zM36,10H37V11H36zM37,10H38V11H37zM40,10H41V11H40zM41,10H42V11H41zM45,10H46V11H45zM6,11H7V12H6zM7,11H8V12H7zM10,11H11V12H10zM14,11H15V12H14zM15,11H16V12H15zM16,11H17V12H16zM17,11H18V12H17zM18,11H19V12H18zM21,11H22V12H21zM23,11H24V12H23zM29,11H30V12H29zM31,11H32V12H31zM32,11H33V12H32zM34,11H35V12H34zM37,11H38V12H37zM38,11H39V12H38zM40,11H41V12H40zM44,11H45V12H44zM45,11H46V12H45zM2,12H3V13H2zM3,12H4V13H3zM4,12H5V13H4zM7,12H8V13H7zM8,12H9V13H8zM9,12H10V13H9zM10,12H11V13H10zM11,12H12V13H11zM18,12H19V13H18zM22,12H23V13H22zM24,12H25V13H24zM25,12H26V13H25zM26,12H27V13H26zM27,12H28V13H27zM28,12H29V13H28zM29,12H30V13H29zM30,12H31V13H30zM31,12H32V13H31zM32,12H33V13H32zM33,12H34V13H33zM35,12H36V13H35zM40,12H41V13H40zM42,12H43V13H42zM43,12H44V13H43zM44,12H45V13H44zM45,12H46V13H45zM4,13H5V14H4zM5,13H6V14H5zM10,13H11V14H10zM11,13H12V14H11zM12,13H13V14H12zM16,13H17V14H16zM17,13H18V14H17zM18,13H19V14H18zM21,13H22V14H21zM22,13H23V14H22zM23,13H24V14H23zM24,13H25V14H24zM26,13H27V14H26zM29,13H30V14H29zM33,13H34V14H33zM34,13H35V14H34zM36,13H37V14H36zM37,13H38V14H37zM3,14H4V15H3zM4,14H5V15H4zM6,14H7V15H6zM7,14H8V15H7zM8,14H9V15H8zM10,14H11V15H10zM11,14H12V15H11zM12,14H13V15H12zM13,14H14V15H13zM15,14H16V15H15zM16,14H17V15H16zM18,14H19V15H18zM19,14H20V15H19zM23,14H24V15H23zM24,14H25V15H24zM28,14H29V15H28zM29,14H30V15H29zM30,14H31V15H30zM31,14H32V15H31zM34,14H35V15H34zM36,14H37V15H36zM37,14H38V15H37zM39,14H40V15H39zM40,14H41V15H40zM43,14H44V15H43zM45,14H46V15H45zM46,14H47V15H46zM2,15H3V16H2zM5,15H6V16H5zM6,15H7V16H6zM10,15H11V16H10zM11,15H12V16H11zM14,15H15V16H14zM17,15H18V16H17zM18,15H19V16H18zM19,15H20V16H19zM21,15H22V16H21zM22,15H23V16H22zM23,15H24V16H23zM25,15H26V16H25zM26,15H27V16H26zM27,15H28V16H27zM28,15H29V16H28zM30,15H31V16H30zM31,15H32V16H31zM32,15H33V16H32zM34,15H35V16H34zM37,15H38V16H37zM38,15H39V16H38zM40,15H41V16H40zM2,16H3V17H2zM6,16H7V17H6zM8,16H9V17H8zM9,16H10V17H9zM10,16H11V17H10zM12,16H13V17H12zM13,16H14V17H13zM20,16H21V17H20zM23,16H24V17H23zM25,16H26V17H25zM29,16H30V17H29zM31,16H32V17H31zM32,16H33V17H32zM33,16H34V17H33zM39,16H40V17H39zM40,16H41V17H40zM41,16H42V17H41zM42,16H43V17H42zM43,16H44V17H43zM45,16H46V17H45zM3,17H4V18H3zM6,17H7V18H6zM7,17H8V18H7zM10,17H11V18H10zM11,17H12V18H11zM12,17H13V18H12zM15,17H16V18H15zM22,17H23V18H22zM23,17H24V18H23zM24,17H25V18H24zM26,17H27V18H26zM27,17H28V18H27zM28,17H29V18H28zM30,17H31V18H30zM32,17H33V18H32zM34,17H35V18H34zM35,17H36V18H35zM36,17H37V18H36zM39,17H40V18H39zM41,17H42V18H41zM3,18H4V19H3zM5,18H6V19H5zM7,18H8V19H7zM8,18H9V19H8zM10,18H11V19H10zM13,18H14V19H13zM14,18H15V19H14zM15,18H16V19H15zM16,18H17V19H16zM19,18H20V19H19zM20,18H21V19H20zM22,18H23V19H22zM26,18H27V19H26zM29,18H30V19H29zM30,18H31V19H30zM34,18H35V19H34zM35,18H36V19H35zM36,18H37V19H36zM39,18H40V19H39zM40,18H41V19H40zM43,18H44V19H43zM46,18H47V19H46zM2,19H3V20H2zM3,19H4V20H3zM4,19H5V20H4zM5,19H6V20H5zM6,19H7V20H6zM9,19H10V20H9zM11,19H12V20H11zM13,19H14V20H13zM14,19H15V20H14zM16,19H17V20H16zM17,19H18V20H17zM19,19H20V20H19zM21,19H22V20H21zM24,19H25V20H24zM25,19H26V20H25zM27,19H28V20H27zM29,19H30V20H29zM30,19H31V20H30zM31,19H32V20H31zM34,19H35V20H34zM35,19H36V20H35zM37,19H38V20H37zM38,19H39V20H38zM40,19H41V20H40zM42,19H43V20H42zM43,19H44V20H43zM44,19H45V20H44zM45,19H46V20H45zM2,20H3V21H2zM5,20H6V21H5zM7,20H8V21H7zM8,20H9V21H8zM9,20H10V21H9zM10,20H11V21H10zM12,20H13V21H12zM14,20H15V21H14zM16,20H17V21H16zM17,20H18V21H17zM19,20H20V21H19zM20,20H21V21H20zM22,20H23V21H22zM24,20H25V21H24zM25,20H26V21H25zM27,20H28V21H27zM29,20H30V21H29zM30,20H31V21H30zM31,20H32V21H31zM33,20H34V21H33zM37,20H38V21H37zM40,20H41V21H40zM41,20H42V21H41zM42,20H43V21H42zM45,20H46V21H45zM6,21H7V22H6zM11,21H12V22H11zM12,21H13V22H12zM13,21H14V22H13zM14,21H15V22H14zM15,21H16V22H15zM16,21H17V22H16zM17,21H18V22H17zM18,21H19V22H18zM19,21H20V22H19zM20,21H21V22H20zM22,21H23V22H22zM23,21H24V22H23zM26,21H27V22H26zM30,21H31V22H30zM31,21H32V22H31zM33,21H34V22H33zM34,21H35V22H34zM35,21H36V22H35zM37,21H38V22H37zM38,21H39V22H38zM39,21H40V22H39zM40,21H41V22H40zM41,21H42V22H41zM45,21H46V22H45zM3,22H4V23H3zM4,22H5V23H4zM5,22H6V23H5zM6,22H7V23H6zM7,22H8V23H7zM8,22H9V23H8zM9,22H10V23H9zM10,22H11V23H10zM14,22H15V23H14zM16,22H17V23H16zM17,22H18V23H17zM18,22H19V23H18zM19,22H20V23H19zM20,22H21V23H20zM22,22H23V23H22zM23,22H24V23H23zM24,22H25V23H24zM25,22H26V23H25zM26,22H27V23H26zM28,22H29V23H28zM29,22H30V23H29zM31,22H32V23H31zM32,22H33V23H32zM34,22H35V23H34zM36,22H37V23H36zM38,22H39V23H38zM39,22H40V23H39zM40,22H41V23H40zM41,22H42V23H41zM42,22H43V23H42zM43,22H44V23H43zM2,23H3V24H2zM6,23H7V24H6zM10,23H11V24H10zM11,23H12V24H11zM13,23H14V24H13zM14,23H15V24H14zM17,23H18V24H17zM20,23H21V24H20zM21,23H22V24H21zM22,23H23V24H22zM26,23H27V24H26zM27,23H28V24H27zM28,23H29V24H28zM32,23H33V24H32zM34,23H35V24H34zM35,23H36V24H35zM37,23H38V24H37zM38,23H39V24H38zM42,23H43V24H42zM44,23H45V24H44zM45,23H46V24H45zM2,24H3V25H2zM3,24H4V25H3zM4,24H5V25H4zM6,24H7V25H6zM8,24H9V25H8zM10,24H11V25H10zM11,24H12V25H11zM12,24H13V25H12zM13,24H14V25H13zM16,24H17V25H16zM18,24H19V25H18zM20,24H21V25H20zM21,24H22V25H21zM22,24H23V25H22zM24,24H25V25H24zM26,24H27V25H26zM28,24H29V25H28zM33,24H34V25H33zM37,24H38V25H37zM38,24H39V25H38zM40,24H41V25H40zM42,24H43V25H42zM43,24H44V25H43zM44,24H45V25H44zM45,24H46V25H45zM3,25H4V26H3zM4,25H5V26H4zM6,25H7V26H6zM10,25H11V26H10zM11,25H12V26H11zM13,25H14V26H13zM14,25H15V26H14zM15,25H16V26H15zM16,25H17V26H16zM19,25H20V26H19zM22,25H23V26H22zM26,25H27V26H26zM27,25H28V26H27zM29,25H30V26H29zM30,25H31V26H30zM31,25H32V26H31zM32,25H33V26H32zM34,25H35V26H34zM37,25H38V26H37zM38,25H39V26H38zM42,25H43V26H42zM46,25H47V26H46zM2,26H3V27H2zM6,26H7V27H6zM7,26H8V27H7zM8,26H9V27H8zM9,26H10V27H9zM10,26H11V27H10zM13,26H14V27H13zM17,26H18V27H17zM20,26H21V27H20zM22,26H23V27H22zM23,26H24V27H23zM24,26H25V27H24zM25,26H26V27H25zM26,26H27V27H26zM27,26H28V27H27zM29,26H30V27H29zM31,26H32V27H31zM33,26H34V27H33zM34,26H35V27H34zM36,26H37V27H36zM38,26H39V27H38zM39,26H40V27H39zM40,26H41V27H40zM41,26H42V27H41zM42,26H43V27H42zM2,27H3V28H2zM5,27H6V28H5zM10,27H11V28H10zM11,27H12V28H11zM12,27H13V28H12zM13,27H14V28H13zM14,27H15V28H14zM15,27H16V28H15zM18,27H19V28H18zM19,27H20V28H19zM20,27H21V28H20zM21,27H22V28H21zM24,27H25V28H24zM25,27H26V28H25zM26,27H27V28H26zM27,27H28V28H27zM28,27H29V28H28zM29,27H30V28H29zM31,27H32V28H31zM32,27H33V28H32zM33,27H34V28H33zM34,27H35V28H34zM35,27H36V28H35zM37,27H38V28H37zM38,27H39V28H38zM39,27H40V28H39zM41,27H42V28H41zM43,27H44V28H43zM44,27H45V28H44zM45,27H46V28H45zM3,28H4V29H3zM4,28H5V29H4zM7,28H8V29H7zM8,28H9V29H8zM17,28H18V29H17zM21,28H22V29H21zM23,28H24V29H23zM24,28H25V29H24zM27,28H28V29H27zM29,28H30V29H29zM32,28H33V29H32zM33,28H34V29H33zM35,28H36V29H35zM39,28H40V29H39zM42,28H43V29H42zM45,28H46V29H45zM2,29H3V30H2zM3,29H4V30H3zM4,29H5V30H4zM5,29H6V30H5zM11,29H12V30H11zM12,29H13V30H12zM13,29H14V30H13zM14,29H15V30H14zM17,29H18V30H17zM19,29H20V30H19zM22,29H23V30H22zM24,29H25V30H24zM25,29H26V30H25zM29,29H30V30H29zM31,29H32V30H31zM34,29H35V30H34zM39,29H40V30H39zM40,29H41V30H40zM42,29H43V30H42zM43,29H44V30H43zM45,29H46V30H45zM2,30H3V31H2zM4,30H5V31H4zM5,30H6V31H5zM8,30H9V31H8zM16,30H17V31H16zM17,30H18V31H17zM18,30H19V31H18zM20,30H21V31H20zM21,30H22V31H21zM23,30H24V31H23zM24,30H25V31H24zM25,30H26V31H25zM27,30H28V31H27zM29,30H30V31H29zM31,30H32V31H31zM34,30H35V31H34zM35,30H36V31H35zM36,30H37V31H36zM39,30H40V31H39zM40,30H41V31H40zM41,30H42V31H41zM42,30H43V31H42zM46,30H47V31H46zM5,31H6V32H5zM10,31H11V32H10zM12,31H13V32H12zM14,31H15V32H14zM15,31H16V32H15zM18,31H19V32H18zM19,31H20V32H19zM20,31H21V32H20zM21,31H22V32H21zM25,31H26V32H25zM31,31H32V32H31zM32,31H33V32H32zM33,31H34V32H33zM35,31H36V32H35zM37,31H38V32H37zM38,31H39V32H38zM40,31H41V32H40zM41,31H42V32H41zM44,31H45V32H44zM2,32H3V33H2zM3,32H4V33H3zM4,32H5V33H4zM5,32H6V33H5zM7,32H8V33H7zM8,32H9V33H8zM10,32H11V33H10zM12,32H13V33H12zM14,32H15V33H14zM17,32H18V33H17zM18,32H19V33H18zM22,32H23V33H22zM23,32H24V33H23zM24,32H25V33H24zM25,32H26V33H25zM26,32H27V33H26zM28,32H29V33H28zM30,32H31V33H30zM32,32H33V33H32zM35,32H36V33H35zM37,32H38V33H37zM41,32H42V33H41zM42,32H43V33H42zM44,32H45V33H44zM45,32H46V33H45zM2,33H3V34H2zM3,33H4V34H3zM6,33H7V34H6zM7,33H8V34H7zM9,33H10V34H9zM10,33H11V34H10zM11,33H12V34H11zM14,33H15V34H14zM15,33H16V34H15zM17,33H18V34H17zM19,33H20V34H19zM20,33H21V34H20zM21,33H22V34H21zM23,33H24V34H23zM24,33H25V34H24zM27,33H28V34H27zM29,33H30V34H29zM33,33H34V34H33zM34,33H35V34H34zM36,33H37V34H36zM38,33H39V34H38zM40,33H41V34H40zM42,33H43V34H42zM45,33H46V34H45zM46,33H47V34H46zM6,34H7V35H6zM7,34H8V35H7zM8,34H9V35H8zM10,34H11V35H10zM12,34H13V35H12zM13,34H14V35H13zM14,34H15V35H14zM15,34H16V35H15zM16,34H17V35H16zM17,34H18V35H17zM18,34H19V35H18zM22,34H23V35H22zM24,34H25V35H24zM25,34H26V35H25zM27,34H28V35H27zM29,34H30V35H29zM30,34H31V35H30zM32,34H33V35H32zM34,34H35V35H34zM35,34H36V35H35zM36,34H37V35H36zM38,34H39V35H38zM40,34H41V35H40zM41,34H42V35H41zM42,34H43V35H42zM4,35H5V36H4zM6,35H7V36H6zM7,35H8V36H7zM11,35H12V36H11zM12,35H13V36H12zM13,35H14V36H13zM15,35H16V36H15zM19,35H20V36H19zM20,35H21V36H20zM21,35H22V36H21zM22,35H23V36H22zM23,35H24V36H23zM24,35H25V36H24zM25,35H26V36H25zM28,35H29V36H28zM29,35H30V36H29zM32,35H33V36H32zM34,35H35V36H34zM35,35H36V36H35zM37,35H38V36H37zM40,35H41V36H40zM41,35H42V36H41zM43,35H44V36H43zM44,35H45V36H44zM45,35H46V36H45zM6,36H7V37H6zM8,36H9V37H8zM10,36H11V37H10zM15,36H16V37H15zM16,36H17V37H16zM17,36H18V37H17zM19,36H20V37H19zM20,36H21V37H20zM21,36H22V37H21zM28,36H29V37H28zM29,36H30V37H29zM30,36H31V37H30zM33,36H34V37H33zM35,36H36V37H35zM39,36H40V37H39zM42,36H43V37H42zM43,36H44V37H43zM45,36H46V37H45zM3,37H4V38H3zM4,37H5V38H4zM5,37H6V38H5zM6,37H7V38H6zM10,37H11V38H10zM11,37H12V38H11zM13,37H14V38H13zM15,37H16V38H15zM20,37H21V38H20zM23,37H24V38H23zM24,37H25V38H24zM25,37H26V38H25zM26,37H27V38H26zM27,37H28V38H27zM31,37H32V38H31zM32,37H33V38H32zM33,37H34V38H33zM34,37H35V38H34zM36,37H37V38H36zM38,37H39V38H38zM39,37H40V38H39zM40,37H41V38H40zM41,37H42V38H41zM45,37H46V38H45zM46,37H47V38H46zM2,38H3V39H2zM5,38H6V39H5zM6,38H7V39H6zM8,38H9V39H8zM9,38H10V39H9zM10,38H11V39H10zM12,38H13V39H12zM13,38H14V39H13zM14,38H15V39H14zM15,38H16V39H15zM17,38H18V39H17zM19,38H20V39H19zM21,38H22V39H21zM22,38H23V39H22zM23,38H24V39H23zM24,38H25V39H24zM25,38H26V39H25zM26,38H27V39H26zM27,38H28V39H27zM33,38H34V39H33zM34,38H35V39H34zM38,38H39V39H38zM39,38H40V39H39zM40,38H41V39H40zM41,38H42V39H41zM42,38H43V39H42zM43,38H44V39H43zM45,38H46V39H45zM46,38H47V39H46zM10,39H11V40H10zM11,39H12V40H11zM14,39H15V40H14zM16,39H17V40H16zM20,39H21V40H20zM22,39H23V40H22zM26,39H27V40H26zM27,39H28V40H27zM28,39H29V40H28zM29,39H30V40H29zM31,39H32V40H31zM32,39H33V40H32zM34,39H35V40H34zM35,39H36V40H35zM37,39H38V40H37zM38,39H39V40H38zM42,39H43V40H42zM43,39H44V40H43zM44,39H45V40H44zM45,39H46V40H45zM2,40H3V41H2zM3,40H4V41H3zM4,40H5V41H4zM5,40H6V41H5zM6,40H7V41H6zM7,40H8V41H7zM8,40H9V41H8zM10,40H11V41H10zM11,40H12V41H11zM15,40H16V41H15zM17,40H18V41H17zM20,40H21V41H20zM22,40H23V41H22zM24,40H25V41H24zM26,40H27V41H26zM29,40H30V41H29zM30,40H31V41H30zM31,40H32V41H31zM32,40H33V41H32zM35,40H36V41H35zM38,40H39V41H38zM40,40H41V41H40zM42,40H43V41H42zM43,40H44V41H43zM2,41H3V42H2zM8,41H9V42H8zM10,41H11V42H10zM11,41H12V42H11zM12,41H13V42H12zM13,41H14V42H13zM15,41H16V42H15zM16,41H17V42H16zM17,41H18V42H17zM18,41H19V42H18zM19,41H20V42H19zM22,41H23V42H22zM26,41H27V42H26zM27,41H28V42H27zM28,41H29V42H28zM29,41H30V42H29zM32,41H33V42H32zM34,41H35V42H34zM36,41H37V42H36zM38,41H39V42H38zM42,41H43V42H42zM45,41H46V42H45zM46,41H47V42H46zM2,42H3V43H2zM4,42H5V43H4zM5,42H6V43H5zM6,42H7V43H6zM8,42H9V43H8zM10,42H11V43H10zM13,42H14V43H13zM14,42H15V43H14zM15,42H16V43H15zM16,42H17V43H16zM18,42H19V43H18zM20,42H21V43H20zM22,42H23V43H22zM23,42H24V43H23zM24,42H25V43H24zM25,42H26V43H25zM26,42H27V43H26zM29,42H30V43H29zM32,42H33V43H32zM34,42H35V43H34zM35,42H36V43H35zM38,42H39V43H38zM39,42H40V43H39zM40,42H41V43H40zM41,42H42V43H41zM42,42H43V43H42zM45,42H46V43H45zM46,42H47V43H46zM2,43H3V44H2zM4,43H5V44H4zM5,43H6V44H5zM6,43H7V44H6zM8,43H9V44H8zM11,43H12V44H11zM12,43H13V44H12zM13,43H14V44H13zM15,43H16V44H15zM16,43H17V44H16zM17,43H18V44H17zM18,43H19V44H18zM20,43H21V44H20zM21,43H22V44H21zM22,43H23V44H22zM27,43H28V44H27zM30,43H31V44H30zM31,43H32V44H31zM32,43H33V44H32zM33,43H34V44H33zM35,43H36V44H35zM37,43H38V44H37zM39,43H40V44H39zM40,43H41V44H40zM41,43H42V44H41zM42,43H43V44H42zM43,43H44V44H43zM44,43H45V44H44zM2,44H3V45H2zM4,44H5V45H4zM5,44H6V45H5zM6,44H7V45H6zM8,44H9V45H8zM11,44H12V45H11zM12,44H13V45H12zM13,44H14V45H13zM17,44H18V45H17zM21,44H22V45H21zM22,44H23V45H22zM25,44H26V45H25zM27,44H28V45H27zM30,44H31V45H30zM31,44H32V45H31zM32,44H33V45H32zM37,44H38V45H37zM39,44H40V45H39zM40,44H41V45H40zM41,44H42V45H41zM42,44H43V45H42zM43,44H44V45H43zM2,45H3V46H2zM8,45H9V46H8zM12,45H13V46H12zM14,45H15V46H14zM15,45H16V46H15zM18,45H19V46H18zM20,45H21V46H20zM21,45H22V46H21zM22,45H23V46H22zM23,45H24V46H23zM24,45H25V46H24zM25,45H26V46H25zM26,45H27V46H26zM28,45H29V46H28zM29,45H30V46H29zM30,45H31V46H30zM32,45H33V46H32zM33,45H34V46H33zM34,45H35V46H34zM36,45H37V46H36zM37,45H38V46H37zM38,45H39V46H38zM42,45H43V46H42zM2,46H3V47H2zM3,46H4V47H3zM4,46H5V47H4zM5,46H6V47H5zM6,46H7V47H6zM7,46H8V47H7zM8,46H9V47H8zM11,46H12V47H11zM12,46H13V47H12zM13,46H14V47H13zM14,46H15V47H14zM15,46H16V47H15zM16,46H17V47H16zM20,46H21V47H20zM21,46H22V47H21zM22,46H23V47H22zM25,46H26V47H25zM27,46H28V47H27zM28,46H29V47H28zM34,46H35V47H34zM35,46H36V47H35zM38,46H39V47H38zM41,46H42V47H41zM42,46H43V47H42zM46,46H47V47H46z" id="qr-path" fill="#000000" fill-opacity="1" fill-rule="nonzero" stroke="none"/></svg>